<?xml version="1.0" standalone="no"?><!DOCTYPE svg PUBLIC "-//W3C//DTD SVG 1.1//EN" "http://www.w3.org/Graphics/SVG/1.1/DTD/svg11.dtd"><svg t="1743866996021" class="icon" viewBox="0 0 1024 1024" version="1.1" xmlns="http://www.w3.org/2000/svg" p-id="13270" xmlns:xlink="http://www.w3.org/1999/xlink" width="200" height="200"><path d="M512 0a512 512 0 1 0 512 512A512 512 0 0 0 512 0z m461.482667 548.864v4.437333h-2.048V557.397333c-1.706667 2.389333-6.485333 1.706667-6.485334 1.706667v-1.706667a47.445333 47.445333 0 0 1-43.349333 17.749334v111.616H138.581333v-103.424a45.397333 45.397333 0 0 1-44.714666-16.384s-4.778667 0-6.485334-1.706667 0 0 0-1.706667a4.096 4.096 0 0 1 0-2.048h-1.706666v-2.048-2.389333h5.461333v-2.048c0-2.048 0 0 0 0h28.330667a4.096 4.096 0 0 0 0 1.706667H140.288a9.557333 9.557333 0 0 1-2.389333-2.048s1.706667 0 0 0 2.389333 0 0 2.389333h2.389333s2.730667 0 2.048 2.389333 0 0 0 1.706667a4.437333 4.437333 0 0 1 1.706667 2.048v2.048l22.869333-8.192V518.826667a162.474667 162.474667 0 0 1-40.618667-29.013334s-4.778667 0-6.485333-1.706666 0 0 0-1.706667v-2.389333c0-0.341333-2.048 0-2.048 0v-2.048-2.389334h25.6v-2.048c0-2.048 0 0 0 0H170.666667a4.096 4.096 0 0 0 0 1.706667h6.485333a9.898667 9.898667 0 0 1-2.389333-2.048s1.706667 0 0 0 2.389333 0 0 2.389333h2.389333s2.730667 0 2.048 2.389334 0 0 0 1.706666a4.437333 4.437333 0 0 1 1.706667 2.048 286.72 286.72 0 0 0 144.384-96.256v-31.061333s-6.485333-4.096 0-3.754667v-8.533333s0-4.778667 7.850666-4.778667v-7.509333s-2.048-4.437333 0-3.754667 2.048-3.413333 5.461334 0v8.533334s0 5.12 3.754666 0 3.754667-2.389333 2.048-5.12-3.072-6.485333 3.072-6.485334c0 0 8.533333-2.048 6.144 9.557334a22.186667 22.186667 0 0 0-3.072 9.557333v7.168s3.754667 0 4.437334 4.437333l-3.072 2.048h316.757333l-3.072-2.048c0-5.461333 4.437333-4.437333 4.437333-4.437333v-7.168a22.528 22.528 0 0 0-3.072-9.557333c-2.048-11.605333 6.144-9.557333 6.144-9.557334 5.802667 0 3.072 6.485333 3.072 6.485334l2.048 5.12h3.754667v-7.850667c3.413333-4.437333 5.461333 0 5.461333 0V341.333333c7.168 0 7.850667 4.778667 7.850667 4.778667v8.192c5.802667 0 0 3.754667 0 3.754667v10.24a287.402667 287.402667 0 0 0 142.336 94.549333 4.437333 4.437333 0 0 1 1.706667-2.048v-1.706667c0-2.048 2.048-2.389333 2.048-2.389333h2.389333v-2.389333a9.557333 9.557333 0 0 1-2.389333 2.048h6.485333a4.096 4.096 0 0 0 0-1.706667h17.066667v2.048H921.6v4.437333h-2.048V465.237333a6.485333 6.485333 0 0 1-5.461333 1.706667 164.181333 164.181333 0 0 1-41.301334 29.354667v15.018666l22.869334 8.192v-2.389333a4.437333 4.437333 0 0 1 1.706666-2.048v-1.706667c0-2.048 2.048-2.389333 2.048-2.389333h2.389334v-2.389333a9.557333 9.557333 0 0 1-2.389334 2.048h6.485334a4.096 4.096 0 0 0 0-1.706667h11.946666L955.733333 546.133333h3.072v2.048h5.461334z" fill="#3C92CF" p-id="13271"></path></svg>