<?xml version="1.0" standalone="no"?><!DOCTYPE svg PUBLIC "-//W3C//DTD SVG 1.1//EN" "http://www.w3.org/Graphics/SVG/1.1/DTD/svg11.dtd"><svg t="1743867101002" class="icon" viewBox="0 0 1024 1024" version="1.1" xmlns="http://www.w3.org/2000/svg" p-id="22257" xmlns:xlink="http://www.w3.org/1999/xlink" width="200" height="200"><path d="M72.2 718c-1.2-2.4 2.1-14.5 7.2-27.4l9.3-23.4h852.9v52.3l-433.5 1.2c-269.2 0.6-434.2-0.2-435.9-2.7zM96 643.2c-1.2-2.8 2.4-12 8-19.3 5.7-7.1 98.6-256.3 102.6-268.5 4.4-12 7.6-28.6 7.2-36.2l-0.8-14.1 62-1.2c38.6-0.8 63.6 0.4 66.8 3.2 2.8 2.4 6.1 9.7 7.6 16.1 1.2 6.8 106.6 285.4 113.5 297l12.5 21.3 2.8-15.3c1.2-8.4 2.4-76.9 2.4-152.1 0-113.9-1.2-138.8-6.1-148.5-11.3-21.3-7.2-22.5 94.2-22.5 87.8 0 137.1 7.4 147.3 12.5 9.3 4.5 32.2 19.3 46.7 31 27 21.7 33 31.4 43.8 68 10.9 36.2-1.6 85.7-29.4 116.3-23 25.3-48.3 40.2-81.3 48.3-29.7 6.8-75.2 7.2-81.7 0.8-2.8-2.8-4.8-15.3-4.8-27.8 0-23.4 5.7-33.9 16.5-30.2 9.3 3.2 40.6-14.9 53.5-31 9.7-12 12.5-20.2 13.7-39 3.6-50.7-18.5-78.1-66.8-82.9l-25.3-2.8 1.6 128.4c1.2 70.4 2.8 134 3.2 140.5l1.6 12H333.9l0.8-12c0.8-6.5-1.6-20.9-4.8-32.2l-5.7-20.2-54.7 1.2c-62.8 1.6-63.2 1.2-52.3-32.2 10.5-31.8 10.9-32.2 49.1-30.6 28.6 1.2 33 0.4 31-4.8-1.2-3.2-27.8-80.9-29.7-87l-4.4-11.3-4.8 10.1c-2.8 5.2-11.3 26.1-18.1 45.9-7.2 20.2-40.7 111-45.1 124.4-7.2 18.9-8 25.3-4.4 33.4 2.4 5.2 3.6 11.6 2.4 13.7-1.6 2.1-23.4 3.6-48.7 3.6-36.8 0-46.9-1.2-48.5-6z" fill="#3C3A7E" p-id="22258"></path><path d="M801.9 646.8c-1.2-1.2 0.8-8 4.4-14.9 5.7-11.3 6.5-31.4 6.5-158.2 0-128.4-0.8-146.5-6.5-152.9-13.7-16.1-6.8-17.7 69.3-17.7 80.1 0 85.3 1.6 68.8 23.8-8 10.9-8.4 16.5-8.9 148.5-0.4 129.6 0 138.4 7.6 152.9 4.4 8.8 6.8 16.9 5.7 18.5-3.1 3.2-144 3.2-146.9 0z" fill="#3C3A7E" p-id="22259"></path><path d="M72.2 718c-1.2-2.4 2.1-14.5 7.2-27.4l9.3-23.4h852.9v52.3l-433.5 1.2c-269.2 0.6-434.2-0.2-435.9-2.7z" fill="#E3322B" p-id="22260"></path></svg>