<?xml version="1.0" standalone="no"?><!DOCTYPE svg PUBLIC "-//W3C//DTD SVG 1.1//EN" "http://www.w3.org/Graphics/SVG/1.1/DTD/svg11.dtd"><svg t="1743867188158" class="icon" viewBox="0 0 1097 1024" version="1.1" xmlns="http://www.w3.org/2000/svg" p-id="24106" xmlns:xlink="http://www.w3.org/1999/xlink" width="214.2578125" height="200"><path d="M1004.251429 790.893714l-250.88-250.88a268.434286 268.434286 0 0 0 211.529142-77.897143 268.434286 268.434286 0 0 0 77.019429-223.085714 60.050286 60.050286 0 0 0-40.301714-49.956571 59.830857 59.830857 0 0 0-62.171429 14.336l-101.449143 101.376a2.706286 2.706286 0 0 1-2.486857 0.731428l-74.532571-14.336c-1.097143-0.219429-1.828571-0.950857-2.121143-2.048l-14.262857-74.605714a3.218286 3.218286 0 0 1 0.731428-2.413714l104.594286-104.594286a60.342857 60.342857 0 0 0-33.426286-102.180571 270.189714 270.189714 0 0 0-260.242285 106.788571 269.165714 269.165714 0 0 0-45.641143 216.649143l-18.358857 18.432-193.609143-194.048-9.654857-47.689143A58.733714 58.733714 0 0 0 260.096 65.828571L158.208 9.142857a58.953143 58.953143 0 0 0-69.851429 9.801143L40.96 66.56a58.806857 58.806857 0 0 0-9.801143 69.778286L87.771429 238.299429a58.441143 58.441143 0 0 0 39.643428 28.891428l47.689143 9.581714 194.048 194.048-302.811429 302.811429a145.846857 145.846857 0 0 0 0 205.970286c27.501714 27.501714 64.073143 42.496 103.058286 42.496a144.822857 144.822857 0 0 0 102.985143-42.422857l268.726857-268.8 271.652572 271.652571c26.404571 26.331429 61.147429 39.570286 95.817142 39.570286 34.742857 0 69.485714-13.165714 95.817143-39.570286 52.662857-52.955429 52.662857-138.752-0.073143-191.634286zM582.436571 368.274286a39.131429 39.131429 0 0 0 9.728-39.350857A190.829714 190.829714 0 0 1 766.098286 80.457143l-76.068572 76.068571c-19.017143 19.017143-27.428571 46.153143-22.235428 72.630857l14.262857 74.605715c6.290286 32.621714 31.451429 57.929143 64.365714 64.365714l74.605714 14.262857c26.477714 5.12 53.686857-3.145143 72.704-22.308571l71.094858-71.094857a190.902857 190.902857 0 0 1-247.808 164.571428 39.497143 39.497143 0 0 0-39.497143 9.801143l-0.219429 0.146286-12.8-12.8a133.046857 133.046857 0 0 0-10.532571-9.362286c-1.097143-0.950857-2.340571-1.755429-3.657143-2.633143a76.141714 76.141714 0 0 0-7.972572-5.558857l-4.388571-2.633143c-2.56-1.462857-5.12-2.925714-7.826286-4.315428a107.227429 107.227429 0 0 0-12.726857-5.632l-5.266286-1.755429a84.992 84.992 0 0 0-13.385142-3.657143 102.765714 102.765714 0 0 0-8.045715-1.462857l-5.924571-0.877714a71.753143 71.753143 0 0 0-8.045714-0.585143c-1.974857-0.146286-3.949714-0.219429-5.997715-0.219429l-1.755428-0.073143c-3.730286 0-7.533714 0.073143-11.264 0.512l-9.362286-9.435428 34.011429-34.742857z m-365.714285 555.739428a68.827429 68.827429 0 0 1-94.866286 0 67.291429 67.291429 0 0 1 0-95.085714l302.811429-302.884571 9.362285 9.362285a135.899429 135.899429 0 0 0 38.692572 106.788572l12.8 12.873143-268.726857 268.946285z m732.233143 2.925715a57.051429 57.051429 0 0 1-80.603429 0L568.758857 627.346286l-40.594286-40.594286a56.32 56.32 0 0 1-14.189714-54.857143 38.985143 38.985143 0 0 0-10.24-37.522286L226.230857 216.795429a59.099429 59.099429 0 0 0-29.842286-15.945143l-44.470857-8.996572-44.909714-80.676571 26.038857-26.112 80.749714 44.909714 8.996572 44.470857a58.660571 58.660571 0 0 0 15.872 29.842286l226.011428 226.157714 51.492572 51.346286a39.350857 39.350857 0 0 0 37.668571 10.313143 56.027429 56.027429 0 0 1 49.444572 10.24c1.755429 1.462857 3.803429 2.56 5.485714 4.169143l340.114286 339.894857a57.197714 57.197714 0 0 1 0 80.457143z" fill="#3473ED" p-id="24107"></path></svg>