<?xml version="1.0" standalone="no"?><!DOCTYPE svg PUBLIC "-//W3C//DTD SVG 1.1//EN" "http://www.w3.org/Graphics/SVG/1.1/DTD/svg11.dtd"><svg t="1743866573141" class="icon" viewBox="0 0 1024 1024" version="1.1" xmlns="http://www.w3.org/2000/svg" p-id="4814" xmlns:xlink="http://www.w3.org/1999/xlink" width="200" height="200"><path d="M935.936 610.304c-32.768-27.648-3.072-90.112-3.072-90.112s-80.896 48.128-29.696 117.76c-18.432-17.408-50.176-48.128-87.04-87.04 4.096-4.096 8.192-8.192 12.288-14.336 0 0 18.432-22.528-23.552-58.368-32.768-27.648-3.072-90.112-3.072-90.112s-73.728 44.032-34.816 109.568C680.96 403.456 583.68 280.576 545.792 173.056l-5.12-14.336L510.976 51.2l-27.648 107.52-5.12 14.336c-37.888 105.472-133.12 227.328-219.136 321.536 35.84-63.488-36.864-106.496-36.864-106.496s29.696 62.464-3.072 90.112c-41.984 35.84-23.552 58.368-23.552 58.368 4.096 6.144 8.192 10.24 12.288 13.312-35.84 37.888-66.56 67.584-86.016 84.992 48.128-68.608-30.72-115.712-30.72-115.712s29.696 62.464-3.072 90.112c-41.984 35.84-23.552 58.368-23.552 58.368 24.576 34.816 50.176 27.648 62.464 21.504V890.88H94.208v81.92h835.584v-81.92h-31.744V689.152c12.288 7.168 37.888 13.312 62.464-21.504-1.024 1.024 17.408-22.528-24.576-57.344zM236.544 890.88h-33.792V668.672l33.792-26.624V890.88z m400.384 60.416H390.144v-49.152h246.784v49.152z m0-74.752H390.144V635.904h246.784v240.64zM820.224 890.88h-33.792V642.048l33.792 26.624V890.88z m0 0" fill="#8A8A8A" p-id="4815"></path></svg>