<?xml version="1.0" standalone="no"?><!DOCTYPE svg PUBLIC "-//W3C//DTD SVG 1.1//EN" "http://www.w3.org/Graphics/SVG/1.1/DTD/svg11.dtd"><svg t="1743866805290" class="icon" viewBox="0 0 1365 1024" version="1.1" xmlns="http://www.w3.org/2000/svg" p-id="9424" xmlns:xlink="http://www.w3.org/1999/xlink" width="266.6015625" height="200"><path d="M0 0h1365.333333v1024H0z" fill="#2E42A5" p-id="9425"></path><path d="M196.4032 255.7952c-14.062933-10.922667 1.774933-32.221867 16.315733-21.9136 9.557333 6.7584 27.8528 18.705067 54.135467 34.2016 43.895467 25.941333 93.730133 51.8144 148.48 75.9808C580.266667 416.836267 753.664 458.752 927.470933 454.178133a348.16 348.16 0 0 0 101.102934-15.496533 215.313067 215.313067 0 0 0-24.302934-42.8032c-8.874667-12.4928 6.3488-27.8528 18.909867-19.114667a232.2432 232.2432 0 0 1 45.533867 43.008c44.305067-30.037333 47.172267-78.097067-7.714134-155.648-8.8064-12.424533 6.417067-27.784533 18.978134-19.0464a313.480533 313.480533 0 0 1 46.4896 41.710934c45.943467 50.653867 63.488 104.516267 32.699733 155.784533a124.928 124.928 0 0 1-9.8304 14.062933c-6.144 8.192-18.295467 19.524267-37.341867 30.72-4.096 2.321067-8.328533 4.573867-12.765866 6.7584-0.068267 19.114667-6.690133 37.6832-20.2752 54.545067-5.12 6.7584-15.018667 16.042667-30.5152 25.053867a161.3824 161.3824 0 0 1-37.888 15.906133c-0.341333 15.633067-5.9392 30.72-16.9984 44.373333a87.4496 87.4496 0 0 1-25.531734 21.162667 148.2752 148.2752 0 0 1-66.628266 18.909867 54.6816 54.6816 0 0 1-10.922667 21.845333 62.600533 62.600533 0 0 1-18.363733 15.223467 105.403733 105.403733 0 0 1-52.497067 13.448533c-0.955733 0.136533-0.955733 0.136533-4.7104 0.273067a499.780267 499.780267 0 0 1-106.564267-8.738134 554.3936 554.3936 0 0 1-187.8016-70.178133 521.762133 521.762133 0 0 1-50.9952-34.952533c-14.062933-10.922667 1.706667-32.221867 16.247467-21.9136 3.959467 2.730667 11.605333 7.850667 22.7328 14.336 18.6368 10.990933 39.799467 22.050133 63.0784 32.290133 69.973333 30.856533 143.496533 48.674133 217.2928 46.6944 9.284267 0 23.210667-1.2288 36.6592-4.9152 3.208533-0.887467 6.144-1.911467 8.942933-3.003733A803.498667 803.498667 0 0 1 371.370667 505.2416c-14.062933-10.922667 1.774933-32.221867 16.315733-21.845333 6.007467 4.232533 17.749333 11.8784 34.6112 21.845333 28.194133 16.5888 60.2112 33.245867 95.368533 48.810667 105.813333 46.6944 217.224533 73.591467 328.840534 70.656h1.024a138.0352 138.0352 0 0 0-7.509334-11.741867 13.448533 13.448533 0 0 1 3.140267-19.0464c-27.579733-2.594133-57.344-6.621867-88.951467-12.356267a1011.438933 1011.438933 0 0 1-342.6304-128 951.159467 951.159467 0 0 1-92.910933-63.761066c-14.062933-10.922667 1.774933-32.221867 16.247467-21.9136 7.509333 5.3248 22.050133 14.7456 42.8032 27.0336 34.747733 20.48 74.205867 40.96 117.5552 60.142933 130.525867 57.5488 267.810133 90.794667 405.367466 87.108267 11.605333 0.068267 27.648-0.955733 45.192534-3.959467a171.8272 171.8272 0 0 0-12.151467-21.367467c-239.342933-5.870933-503.125333-79.189333-737.211733-261.051733z m683.758933 357.1712c2.321067 2.594133 4.5056 5.188267 6.5536 7.850667 24.439467-4.437333 43.690667-12.151467 55.296-23.210667-23.620267 0.682667-50.7904 0.136533-80.896-2.116267a136.533333 136.533333 0 0 1 19.114667 17.476267z m101.307734-69.085867c26.487467-8.260267 51.882667-22.254933 62.737066-46.011733-22.869333 14.1312-51.746133 14.1312-95.0272 14.1312 6.485333 4.778667 18.432 11.4688 32.290134 31.880533z m-653.653334-328.362666c-14.062933-10.922667 1.774933-32.1536 16.315734-21.845334 6.690133 4.778667 19.797333 13.243733 38.434133 24.302934 31.197867 18.432 66.696533 36.864 105.6768 54.0672 117.3504 51.746133 240.776533 81.578667 364.407467 78.370133 16.384 0 40.1408-2.116267 63.419733-8.6016 61.44-17.066667 78.2336-51.336533 28.8768-121.0368-8.874667-12.4928 6.3488-27.8528 18.909867-19.114667 8.669867 6.007467 21.230933 16.452267 33.860266 30.378667 33.860267 37.341867 46.8992 77.482667 23.893334 116.053333a92.296533 92.296533 0 0 1-7.304534 10.24 95.368533 95.368533 0 0 1-27.8528 23.005867c-22.186667 12.970667-50.176 20.821333-83.285333 21.162667a230.741333 230.741333 0 0 1-7.509333 0.341333c-44.8512 1.774933-104.994133-1.570133-175.104-14.336a912.042667 912.042667 0 0 1-308.906667-115.370667 857.770667 857.770667 0 0 1-83.831467-57.5488z m379.426134 599.790933c-3.072 18.8416-27.989333 20.8896-58.914134 14.677333-30.5152-6.144-52.701867-17.408-49.834666-35.4304 3.072-18.8416 27.989333-20.8896 58.9824-14.677333 30.446933 6.144 52.701867 17.408 49.7664 35.4304z" fill="#F7FCFF" p-id="9426"></path></svg>